# xmcd
#
# Track frame offsets:
#	150
#	10007
#	23012
#	34430
#	46917
#	59680
#	72552
#	84712
#	96642
#	107335
#	116947
#	128745
#	141895
#
# Disc length: 2053 seconds
#
# Revision: 2
# Processed by: cddbd v1.4PL0 Copyright (c) Steve Scherf et al.
# Submitted via: audiograbber 1.81.00
#
DISCID=bb08030d
DTITLE=Mel Tillis - Greatest Hits
DYEAR=1900
DGENRE=Country
TTITLE0=I Ain't Never
TTITLE1=Brand New Mister Me
TTITLE2=Stomp Them Grapes
TTITLE3=Commercial Affection
TTITLE4=Midnight Me And The Blues
TTITLE5=Woman In The Back Of My Mind
TTITLE6=Sawmill
TTITLE7=The Arms Of A Fool
TTITLE8=Neon Rose
TTITLE9=Take My Hand (with Sherry Bryce)
TTITLE10=Heaven Every Day
TTITLE11=Memory Maker
TTITLE12=Mental Revenge
EXTD=
EXTT0=
EXTT1=
EXTT2=
EXTT3=
EXTT4=
EXTT5=
EXTT6=
EXTT7=
EXTT8=
EXTT9=
EXTT10=
EXTT11=
EXTT12=
PLAYORDER=
